Coordinates
version=1
nRows=11
nColumns=63
inDegrees=yes

Units are S.I. units (second, meters, Newtons, ...)
If the header above contains a line with 'inDegrees', this indicates whether rotational values are in degrees (yes) or radians (no).

endheader
time	pelvis_tilt	pelvis_list	pelvis_rotation	pelvis_tx	pelvis_ty	pelvis_tz	hip_flexion_r	hip_adduction_r	hip_rotation_r	knee_angle_r	knee_angle_r_beta	ankle_angle_r	subtalar_angle_r	mtp_angle_r	hip_flexion_l	hip_adduction_l	hip_rotation_l	knee_angle_l	knee_angle_l_beta	ankle_angle_l	subtalar_angle_l	mtp_angle_l	L5_S1_Flex_Ext	L5_S1_Lat_Bending	L5_S1_axial_rotation	L4_L5_Flex_Ext	L4_L5_Lat_Bending	L4_L5_axial_rotation	L3_L4_Flex_Ext	L3_L4_Lat_Bending	L3_L4_axial_rotation	L2_L3_Flex_Ext	L2_L3_Lat_Bending	L2_L3_axial_rotation	L1_L2_Flex_Ext	L1_L2_Lat_Bending	L1_L2_axial_rotation	L1_T12_Flex_Ext	L1_T12_Lat_Bending	L1_T12_axial_rotation	Abs_r3	Abs_r2	Abs_r1	Abs_t1	Abs_t2	neck_flexion	neck_bending	neck_rotation	arm_flex_r	arm_add_r	arm_rot_r	elbow_flex_r	pro_sup_r	wrist_flex_r	wrist_dev_r	arm_flex_l	arm_add_l	arm_rot_l	elbow_flex_l	pro_sup_l	wrist_flex_l	wrist_dev_l
3.650000	-5.218382	-3.611799	94.328559	0.300629	0.760968	0.839467	-4.123341	-2.979737	-2.902737	4.713602	0.082268	20.696872	8.838385	0.000000	-1.329420	2.236242	-15.534492	10.548769	0.184111	22.072458	14.581197	0.000000	0.019944	-0.269177	1.597711	0.037039	-0.358006	1.697567	0.032767	-0.654478	1.697567	0.022794	-0.654478	1.397997	0.018520	-0.548907	1.298140	0.011396	-0.416956	1.198283	0.142460	-3.044989	8.885987	0.000000	0.000000	19.255882	6.526288	-8.620857	-0.494570	-11.388880	18.379776	132.018635	54.040864	1.100599	27.870334	0.837027	-19.370967	51.884686	34.429855	84.418030	-4.481659	9.461737
3.666667	-5.202985	-3.545016	93.946135	0.300473	0.760766	0.839932	-4.059505	-3.059569	-2.857044	4.827625	0.084258	20.940489	9.523527	0.000000	-1.436401	2.291107	-15.725682	10.448847	0.182367	22.193211	14.419790	0.000000	0.005365	-0.275080	1.719691	0.009964	-0.365857	1.827171	0.008814	-0.668830	1.827171	0.006132	-0.668830	1.504729	0.004982	-0.560944	1.397249	0.003066	-0.426100	1.289768	0.038323	-3.111764	9.564403	0.000000	0.000000	19.682821	6.279585	-8.996467	-2.174101	-11.694206	17.850249	131.948755	54.417122	3.093919	27.528283	0.213774	-19.922110	50.273860	35.993354	85.885902	-4.260620	10.443214
3.683333	-5.175642	-3.467599	93.581855	0.300288	0.760428	0.840408	-4.008258	-3.121229	-2.779109	4.923623	0.085933	21.225693	10.178541	0.000000	-1.544268	2.330499	-15.899595	10.376077	0.181097	22.376904	14.250960	0.000000	-0.010520	-0.280365	1.821715	-0.019536	-0.372885	1.935572	-0.017283	-0.681679	1.935572	-0.012023	-0.681679	1.594000	-0.009769	-0.571720	1.480143	-0.006011	-0.434285	1.366286	-0.075142	-3.171542	10.131830	0.000000	0.000000	19.947103	6.084645	-9.323573	-3.849551	-11.974235	17.315220	131.552470	55.760928	5.028564	26.635524	-0.587322	-20.429227	48.410686	37.546904	87.088206	-4.208931	11.050100
3.700000	-5.138594	-3.388342	93.233088	0.300056	0.759959	0.840898	-3.959585	-3.168450	-2.672561	5.005889	0.087369	21.545583	10.790910	0.000000	-1.647663	2.359285	-16.061108	10.319316	0.180106	22.620032	14.076198	0.000000	-0.026750	-0.285912	1.909332	-0.049678	-0.380263	2.028665	-0.043948	-0.695166	2.028665	-0.030573	-0.695166	1.670665	-0.024840	-0.583031	1.551332	-0.015285	-0.442877	1.431999	-0.191074	-3.234291	10.619130	0.000000	0.000000	20.003291	5.933581	-9.697984	-5.501311	-12.212765	16.729361	130.800764	58.057412	6.847127	25.363639	-1.507002	-20.868706	46.398923	39.014984	88.037273	-4.382081	11.310850
3.716667	-5.088887	-3.321974	92.939400	0.299731	0.759341	0.841416	-3.912748	-3.193361	-2.541557	5.057399	0.088268	21.880030	11.301782	0.000000	-1.719186	2.370420	-16.191953	10.297897	0.179732	22.937109	13.916467	0.000000	-0.042394	-0.290998	1.963081	-0.078729	-0.387027	2.085774	-0.069649	-0.707533	2.085774	-0.048452	-0.707533	1.717696	-0.039367	-0.593403	1.595004	-0.024224	-0.450756	1.472311	-0.302814	-3.291828	10.918070	0.000000	0.000000	19.867453	5.847237	-9.977012	-7.023503	-12.433161	16.242283	129.633618	61.058090	8.271407	23.736919	-2.581454	-21.217659	44.126926	40.341967	88.605168	-4.769603	11.026790
3.733333	-5.015146	-3.269030	92.700407	0.299283	0.758616	0.841970	-3.859186	-3.187349	-2.385060	5.093485	0.088898	22.214855	11.713035	0.000000	-1.765536	2.352454	-16.330712	10.289803	0.179591	23.312584	13.822045	0.000000	-0.058807	-0.294633	1.994618	-0.109210	-0.391862	2.119282	-0.096613	-0.716370	2.119282	-0.067210	-0.716370	1.745291	-0.054608	-0.600815	1.620627	-0.033602	-0.456386	1.495964	-0.420050	-3.332945	11.093469	0.000000	0.000000	19.605946	5.801408	-10.299901	-8.427007	-12.662724	15.793758	128.096501	64.654474	9.244836	21.981390	-3.654608	-21.450520	41.944214	41.386666	88.904285	-5.367492	10.205992
3.750000	-4.922240	-3.249704	92.512684	0.298709	0.757788	0.842567	-3.782916	-3.155544	-2.163000	5.103443	0.089072	22.527679	11.971170	0.000000	-1.765268	2.310441	-16.505789	10.294402	0.179671	23.732376	13.821664	0.000000	-0.073133	-0.296993	1.999325	-0.135815	-0.395000	2.124282	-0.120150	-0.722108	2.124282	-0.083583	-0.722108	1.749409	-0.067911	-0.605627	1.624451	-0.041788	-0.460042	1.499493	-0.522379	-3.359640	11.119643	0.000000	0.000000	19.230907	5.757798	-10.608591	-9.647608	-12.932462	15.473876	126.160210	68.599280	9.739239	20.148084	-4.741988	-21.528957	39.640312	42.115352	89.189189	-6.044701	8.960118
3.766667	-4.802894	-3.259970	92.405740	0.297951	0.756905	0.843247	-3.686086	-3.094140	-1.995991	5.095533	0.088934	22.820580	12.195819	0.000000	-1.714405	2.237733	-16.677883	10.317963	0.180082	24.179796	13.903231	0.000000	-0.086637	-0.295834	1.977354	-0.160893	-0.393459	2.100939	-0.142336	-0.719291	2.100939	-0.099017	-0.719291	1.730185	-0.080451	-0.603265	1.606600	-0.049504	-0.458247	1.483016	-0.618838	-3.346535	10.997451	0.000000	0.000000	18.789801	5.744305	-10.803221	-10.683813	-13.248840	15.247032	123.826273	72.543260	9.932253	18.350948	-5.701081	-21.506649	37.769912	42.414087	88.956266	-6.788320	7.273844
3.783333	-4.667864	-3.312285	92.351338	0.297061	0.756009	0.844035	-3.551918	-3.012829	-1.808792	5.065142	0.088403	23.066794	12.303778	0.000000	-1.602943	2.145752	-16.877583	10.354754	0.180725	24.612281	14.067649	0.000000	-0.097849	-0.292970	1.934927	-0.181715	-0.389650	2.055860	-0.160756	-0.712328	2.055860	-0.111832	-0.712328	1.693061	-0.090863	-0.597425	1.572128	-0.055911	-0.453811	1.451195	-0.698926	-3.314138	10.761483	0.000000	0.000000	18.317313	5.741053	-10.924295	-11.518305	-13.637878	15.180336	121.107757	76.503833	9.832707	16.662609	-6.593225	-21.314518	35.807654	42.257883	88.652918	-7.516348	5.337944
3.800000	-4.509698	-3.400372	92.402774	0.295974	0.755142	0.844961	-3.389772	-2.906502	-1.758816	5.015889	0.087544	23.282885	12.445962	0.000000	-1.424524	2.026850	-17.025402	10.419149	0.181848	25.035231	14.286737	0.000000	-0.107308	-0.286542	1.871562	-0.199282	-0.381100	1.988534	-0.176296	-0.696697	1.988534	-0.122642	-0.696697	1.637617	-0.099646	-0.584316	1.520644	-0.061316	-0.443853	1.403671	-0.766491	-3.241416	10.409065	0.000000	0.000000	17.838983	5.781351	-10.884060	-12.196939	-14.074355	15.197351	118.015917	80.141110	9.709850	15.229920	-7.310800	-21.027349	34.245438	41.639879	88.035699	-8.131643	3.382054
3.816667	-4.333152	-3.525098	92.507873	0.294777	0.754334	0.846043	-3.188353	-2.780791	-1.784626	4.951587	0.086421	23.453503	12.604272	0.000000	-1.184516	1.888332	-17.156806	10.499396	0.183249	25.428737	14.526572	0.000000	-0.114917	-0.277292	1.800472	-0.213412	-0.368798	1.913002	-0.188797	-0.674208	1.913002	-0.131338	-0.674208	1.575413	-0.106712	-0.565454	1.462884	-0.065663	-0.429525	1.350354	-0.820838	-3.136782	10.013687	0.000000	0.000000	17.381929	5.845230	-10.725683	-12.757176	-14.532906	15.254576	114.600042	83.418717	9.623864	14.203704	-7.877368	-20.644667	33.015398	40.617320	87.014706	-8.673370	1.518584
